<svg width="117" height="93" viewBox="0 0 117 93" fill="none" xmlns="http://www.w3.org/2000/svg">
<path d="M100.306 90.9589H12.0446V35.707L114.961 35.7069V90.9588L100.306 90.9589ZM100.306 90.9589C100.306 82.8546 106.866 76.2859 114.961 76.2859M12.0446 50.38C20.1395 50.38 26.7007 43.8113 26.7007 35.707M12.0442 76.2859C20.1392 76.2859 26.7003 82.8545 26.7003 90.9588M40.9508 63.3345H34.9032M92.1191 63.3345H86.0715M114.961 50.3799C106.866 50.3799 100.305 43.8112 100.305 35.7069M71.7563 56.0083C71.7563 56.0083 69.817 50.3799 63.5194 50.3799C59.0124 50.3799 55.2318 52.6597 54.9919 56.0083C54.7926 58.7649 56.4684 61.6129 63.3741 62.8002M54.2521 70.1739C54.2521 70.1739 56.357 76.2859 63.1985 76.2859C68.0941 76.2859 72.1956 73.81 72.4591 70.1739C72.6754 67.1804 70.8543 64.0889 63.354 62.7968M63.5194 46.2737V80.3921M12.0442 27.1562L114.961 27.1562M12.0442 18.5378L114.961 18.5379M12.0442 9.9194L114.961 9.9194" stroke="#78BE20" stroke-width="4" stroke-miterlimit="10" stroke-linecap="round" stroke-linejoin="round"/>
</svg>
