<svg width="129" height="91" viewBox="0 0 129 91" fill="none" xmlns="http://www.w3.org/2000/svg">
<path d="M99.6688 11.9219C99.6688 11.9219 96.4074 13.1112 94.3463 13.8405C92.2883 14.5699 88.4298 13.777 84.2227 13.2383C80.0156 12.6996 71.5591 11.1774 67.2975 10.8657C63.0328 10.554 60.6474 12.2366 56.8404 15.5988C53.0335 18.961 49.0052 22.2596 46.7107 24.6444C44.4162 27.0291 44.8588 28.7752 44.88 31.6684C44.8982 34.5615 44.7345 42.3693 44.877 44.9568C45.0194 47.5443 49.6023 48.1253 52.3969 45.9615C55.1885 43.7977 57.1587 39.691 57.6224 35.0911C58.0892 30.4911 61.8507 27.1834 64.809 29.6831L99.2536 58.7627C101.639 60.7752 101.936 64.3401 99.9204 66.7218C97.9048 69.1035 94.3342 69.4001 91.9488 67.3876L75.266 53.3033M75.2598 53.2972L89.4723 65.2964C91.8577 67.3119 92.1547 70.8738 90.1391 73.2555C88.1204 75.6372 84.5529 75.9338 82.1675 73.9213L70.4283 64.0102L79.6977 71.8363C82.0831 73.8518 82.3801 77.4137 80.3645 79.7954C78.3458 82.1771 74.7783 82.4736 72.3929 80.4612L66.2308 75.259M56.6314 81.944L62.6177 86.9979C65.0031 89.0104 68.5707 88.7138 70.5893 86.3321C72.6049 83.9505 72.3079 80.3885 69.9225 78.373L66.2307 75.2559M23.4174 3.25158L29.9735 6.48365C32.9409 7.94535 34.1594 11.5345 32.6923 14.4973L17.2493 45.7255C15.7853 48.6882 12.1905 49.9048 9.2231 48.4401L2.66699 45.211M16.5217 47.1932C18.6768 48.3492 20.6045 49.8866 22.2079 51.7296L25.6421 55.6729M33.2805 13.3079L36.5812 15.0934C39.291 16.5581 42.3008 17.3843 45.3773 17.5114L54.2279 17.8715M126.333 46.6999L119.453 49.1694C116.34 50.2891 112.906 48.6731 111.784 45.5651L99.9782 12.7904C98.8567 9.68241 100.475 6.25363 103.588 5.13391L110.469 2.66446M98.2291 57.9002L105.646 50.9095C107.492 49.1694 109.65 47.7924 112.008 46.8482L112.22 46.7635M28.467 52.3409L25.6451 55.6729C23.8325 57.8125 24.1023 61.0143 26.2452 62.824C28.3881 64.6337 31.595 64.3644 33.4075 62.2248L36.3719 58.7264C38.2905 56.4627 37.8783 53.0067 35.3777 51.2726C33.1923 49.7625 30.1825 50.3163 28.467 52.3409ZM40.0304 70.1143L46.6441 62.3035C48.4567 60.1639 48.1869 56.9621 46.044 55.1523C43.901 53.3426 40.6942 53.612 38.8817 55.7516L32.268 63.5624C30.4554 65.702 30.7252 68.9038 32.8681 70.7135C35.0141 72.5232 38.2209 72.2539 40.0304 70.1143ZM47.7927 76.6662L52.5271 71.0736C54.3397 68.934 54.0699 65.7322 51.927 63.9225C49.7841 62.1128 46.5772 62.3821 44.7647 64.5217L40.0272 70.1143C38.2146 72.2539 38.4844 75.4557 40.6273 77.2654C42.7733 79.0751 45.9801 78.8058 47.7927 76.6662ZM56.3281 82.2981L57.7709 80.5974C59.5834 78.4578 59.3137 75.256 57.1707 73.4463C55.0278 71.6365 51.821 71.9059 50.0084 74.0455L48.5657 75.7462C46.7531 77.8858 47.0229 81.0876 49.1658 82.8973C51.3118 84.707 54.5186 84.4377 56.3281 82.2981Z" stroke="#78BE20" stroke-width="4" stroke-miterlimit="10" stroke-linecap="round" stroke-linejoin="round"/>
</svg>
