<svg width="22" height="22" viewBox="0 0 22 22" fill="none" xmlns="http://www.w3.org/2000/svg">
<g clip-path="url(#clip0_29:115)">
<path d="M10.92 0C4.9 0 0 4.9 0 10.92C0 16.94 4.9 21.84 10.92 21.84C16.94 21.84 21.84 16.94 21.84 10.92C21.84 4.9 16.94 0 10.92 0ZM10.92 20.83C5.45 20.83 1 16.38 1 10.92C1 5.46 5.45 1 10.92 1C16.39 1 20.84 5.45 20.84 10.92C20.84 16.39 16.38 20.83 10.92 20.83Z" fill="#4D4F55"/>
<path d="M8.65997 15.01L15.76 10.92L8.65997 6.82001V15.01Z" fill="#4D4F55"/>
</g>
<defs>
<clipPath id="clip0_29:115">
<rect width="21.83" height="21.83" fill="white"/>
</clipPath>
</defs>
</svg>
