<svg width="22" height="22" viewBox="0 0 22 22" fill="none" xmlns="http://www.w3.org/2000/svg">
<g clip-path="url(#clip0_29:119)">
<path d="M10.77 5.41003C9.18002 5.41003 7.76001 6.22003 7.14001 7.74004L8.91001 8.76004C9.22001 7.95004 9.81001 7.43004 10.69 7.43004C11.56 7.43004 12.06 7.83004 12.06 8.52004C12.06 10 9.54001 10.62 9.54001 12.6H11.61C11.61 11.28 14.13 10.62 14.13 8.37004C14.13 6.43003 12.46 5.41003 10.77 5.41003Z" fill="#4D4F55"/>
<path d="M10.57 13.77C9.85999 13.77 9.29999 14.34 9.29999 15.04C9.29999 15.74 9.86999 16.32 10.57 16.32C11.27 16.32 11.84 15.75 11.84 15.04C11.84 14.33 11.28 13.77 10.57 13.77Z" fill="#4D4F55"/>
<path d="M10.92 0C4.9 0 0 4.9 0 10.92C0 16.94 4.9 21.84 10.92 21.84C16.94 21.84 21.84 16.94 21.84 10.92C21.84 4.9 16.94 0 10.92 0ZM10.92 20.83C5.45 20.83 1 16.38 1 10.92C1 5.46 5.45 1 10.92 1C16.39 1 20.84 5.45001 20.84 10.92C20.84 16.39 16.38 20.83 10.92 20.83Z" fill="#4D4F55"/>
</g>
<defs>
<clipPath id="clip0_29:119">
<rect width="21.83" height="21.83" fill="white"/>
</clipPath>
</defs>
</svg>
