<?xml version="1.0" encoding="utf-8"?>
<!-- Generator: Adobe Illustrator 27.1.1, SVG Export Plug-In . SVG Version: 6.00 Build 0)  -->
<svg version="1.1" id="Layer_1" xmlns="http://www.w3.org/2000/svg" xmlns:xlink="http://www.w3.org/1999/xlink" x="0px" y="0px"
	 viewBox="0 0 1300 820" style="enable-background:new 0 0 1300 820;" xml:space="preserve">
<g>
	<path d="M672.2,700c-10.1-8.7-19.5-16.6-28.6-24.8c-18-16.3-34-34.4-47.9-54.3c-2.3-3.3-4.2-6.9-7-9.6c-1.6-1.6-4.6-2.4-6.9-2.4
		c-29.7-0.2-59.3-0.1-89-0.1c-18.2,0-36.3,0-54.5-0.1c-14.7-0.1-25.1-7.6-30.9-20.5c-6.1-13.5-4.6-26.8,5.4-38.6
		c7.6-9,17.6-12.6,29.1-12.6c34,0,68,0,102,0c2,0,3.9,0,6.9,0c-11-29.5-17.6-59.3-21.2-91.2c-11,0-21.9-0.1-32.8,0
		c-11.2,0.1-22.5,0.6-33.7,0.7c-37.7,0.1-75.3,0.1-113,0c-11,0-22,0-32.9-0.9c-17.7-1.6-31.1-15.3-32.2-33.5
		c-1.2-21.1,16.5-38.2,38.1-38.1c66.6,0.2,133.3,0.1,199.9,0.1c2.1,0,4.3,0,6.2,0c2.7-15.5,4.7-30.8,8.2-45.7
		c3.4-14.9,8.3-29.4,12.7-44.8c-1.9,0-4,0-6,0c-120.7,0-241.3,0-362-0.1c-15.8,0-28.4-6-36-20.5c-11.7-22.2,4.8-50.7,29.9-51.1
		c27.5-0.4,55-0.2,82.5-0.2c59.3,0,118.6,0,177.9-0.1c32.7,0,65.3-0.3,98-0.4c16.5,0,33,0.3,49.4,0.1c2.2,0,5.1-1.7,6.3-3.5
		c17.6-26.2,38.4-49.5,62.1-70.4c6.3-5.6,13.1-10.7,20.8-16.9c-3,0-4.9,0-6.8,0c-49.3,0-98.7,0.1-148-0.1
		c-13.7,0-24.3-6.9-30.7-18.6c-6.9-12.7-6.3-26.1,2.1-38.1c7-9.9,16.9-15,29.5-15c117.2,0.1,234.3,0,351.5,0.1
		c16.8,0,33.7-0.2,50.4,1.2c15.9,1.4,31.8,4.2,47.5,7.4c36.1,7.3,69.9,20.9,101.8,39.1c19.3,11.1,37.5,23.9,54.4,38.4
		c24.3,20.9,45.7,44.4,63.9,70.9c27.1,39.4,44.9,82.8,55.2,129.3c2.9,12.9,4.7,26,6,39.2c1.4,14,2.2,28.2,2,42.3
		c-0.6,37.2-6.8,73.6-18.8,108.9c-10.1,29.8-23.7,57.8-41.1,84c-15.4,23.1-32.7,44.7-53.1,63.6c-21.9,20.5-45.9,38.3-72.3,52.8
		c-23.3,12.8-47.4,23.7-72.9,30.7c-19,5.2-38.6,8.6-58.1,11.9c-27.4,4.7-55.1,3.1-82.6,3.1c-159.7,0.1-319.3,0-479,0
		c-14.1,0-25.5-5.5-32.3-17.8c-7.3-13.2-6.7-27,2-39.4c6.3-9.1,15.7-14.4,27.1-14.4c98.3-0.1,196.7,0,295,0
		C667.5,700,669.4,700,672.2,700z M598.8,411.9c-1.5,155.2,129.9,289.8,290.8,289.3c162.1-0.5,286.8-130.8,291.6-280
		c5.5-171.8-132.4-301.6-290-302.3C729.7,118.3,596.4,251.1,598.8,411.9z"/>
	<path d="M131.9,373.9c15.5,0,31-0.4,46.5,0.1c21,0.7,36.7,15.2,36.3,37c-0.5,20.6-15.3,35-37.6,35.3c-11,0.2-21.9-0.6-32.9-0.6
		c-19.6,0.1-39.2,0.5-58.8,0.6c-18.9,0-33.3-11.9-37-30.4c-3-15,6.4-32.8,20.8-38.1c5.6-2.1,11.8-3.3,17.8-3.4c15-0.5,30-0.2,45-0.2
		C131.9,374.1,131.9,374,131.9,373.9z"/>
	<path d="M288.1,119.6c-17.6-0.1-30.9-15.2-31.9-33c-1-17.3,10.8-33.2,27.4-36.7c3.2-0.7,6.6-1,9.9-1c31-0.1,62,0,92.9,0
		c19.1,0,34.2,13.4,36.1,32.8c1.7,17-10.3,37.4-28.7,37.9c-5.2,0.1-41.5,0.1-54.3,0.1C339.4,119.7,305.1,119.7,288.1,119.6z"/>
	<path d="M256.9,608.6c-14.2,0-28.3,0.3-42.5-0.1c-14.4-0.3-27.5-11.3-31.3-25.5c-6.4-24.2,10.4-46.2,35.5-46.1
		c26.7,0.1,53.3,0.2,80,0.7c18.2,0.3,31,10.6,34.6,27.8c5.2,24.5-14.1,43.3-33.8,43.2C285.2,608.5,271.1,608.6,256.9,608.6z"/>
</g>
<path d="M915.3,218.8c10.4,0,19.9,4.2,26.7,11.1c6.8,6.8,11.1,16.3,11.1,26.7c0,10.4-4.2,19.9-11.1,26.7
	c-6.8,6.8-16.3,11.1-26.7,11.1c-10.4,0-19.9-4.2-26.7-11.1c-6.8-6.8-11.1-16.3-11.1-26.7c0-10.4,4.2-19.9,11.1-26.7
	C895.5,223,904.9,218.8,915.3,218.8z"/>
<path d="M907.4,298.2c5.6,1.5,10.5,4.2,14.5,7.8c4,3.6,7.2,8.2,9.2,13.2l33.2,53.5l61,10.6c5.5,1,9,4.3,11,8.8
	c1.9,4.2,2.4,9.5,2.1,14.3c-0.1,0.8-0.1,1.5-0.2,2.3c-0.9,5.5-4.5,9-9.2,10.9c-3.9,1.6-8.5,2.1-12.9,1.7c-1-0.1-1.8-0.2-2.5-0.3
	l-63.5-11c-1.7-0.3-3.3-0.9-4.8-1.7c-1.3-0.7-2.5-1.6-3.7-2.6c-1.6-1-3.1-2.2-4.4-3.5c-1.5-1.5-2.9-3.2-4-5L923,380.5
	c-3.9,16.9-9.6,41.1-15,52.9l34.8,29.7c1.6,1.4,3.1,2.9,4.5,4.6c1.2,1.4,2.3,3,3.2,4.6c1.2,1.5,2.3,3.1,3.1,4.8
	c0.9,1.9,1.5,3.9,1.6,6l5.8,74.4c0.1,1,0.1,1.9,0.1,2.8c0,4.9-1,10.1-3.2,14.2c-1.6,3-3.8,5.5-6.6,7.1c-3.9,2.2-8.1,2.1-12.4,1.7
	c-4.4-0.4-8.8-1.5-12.3-3.6c-4.7-2.7-8-6.8-8.4-12.9l-5.7-72.6l-33.7-28.8l-5.2,37.8c-0.3,2-0.7,4-1.3,5.9c-0.5,1.7-1.2,3.3-2,4.9
	c-0.3,1.2-0.8,2.4-1.3,3.5c-0.7,1.4-1.5,2.7-2.5,3.8l-49.7,55.7c-0.6,0.6-1.2,1.3-2,2c-3.5,3.4-8,6.3-12.5,7.6
	c-5.4,1.5-10.8,1-15.3-3.1l0,0c-0.2-0.1-0.3-0.3-0.4-0.4l-0.1-0.1c-0.3-0.2-0.5-0.5-0.7-0.8c-3.9-4.2-7.5-9.4-8.8-14.7
	c-1.3-5.2-0.6-10.5,3.5-15l49.7-55.7c0.2-0.2,0.4-0.4,0.7-0.7l9.3-67c0.4-2.5,0.5-5.6,0.7-8.6c0.3-4.6,0.6-9.1,1.5-12.6l15.2-59.2
	l-28.5,8.6l-26,56.1c-2.3,5.1-6.5,7.6-11.3,8.4c-5,0.8-10.6-0.3-15.4-2.1l0,0c0,0-0.1,0-0.1-0.1c-0.3-0.1-0.6-0.2-0.9-0.4
	c-5-2.3-7.5-6.7-8.1-11.7c-0.6-4.2,0.2-8.8,1.7-12.8l0,0l0-0.1c0.3-0.7,0.6-1.4,0.9-2.2l27.1-58.5c0.7-1.6,1.7-3,2.9-4.2
	c1-1,2.1-2,3.4-2.8c1.4-1.3,2.9-2.4,4.6-3.4c1.9-1.1,3.9-2,5.8-2.6l72.4-21.9c0.7-0.3,1.5-0.5,2.2-0.7l0,0c0.1,0,0.2-0.1,0.3-0.1
	c0.5-0.2,1.1-0.3,1.8-0.5l0,0l0,0c0.4-0.1,1-0.3,1.7-0.4c0.6-0.1,1.1-0.2,1.6-0.2c2.3-0.3,4.6-0.4,7-0.3
	C902.7,297.2,905.1,297.5,907.4,298.2z"/>
</svg>
