<?xml version="1.0" encoding="utf-8"?>
<!-- Generator: Adobe Illustrator 27.1.1, SVG Export Plug-In . SVG Version: 6.00 Build 0)  -->
<svg version="1.1" id="Layer_1" xmlns="http://www.w3.org/2000/svg" xmlns:xlink="http://www.w3.org/1999/xlink" x="0px" y="0px"
	 viewBox="0 0 1300 820" style="enable-background:new 0 0 1300 820;" xml:space="preserve">
<g>
	<path d="M672.2,699.2c-10.1-8.7-19.5-16.6-28.6-24.8c-18-16.3-34-34.4-47.9-54.3c-2.3-3.3-4.2-6.9-7-9.6c-1.6-1.6-4.6-2.4-6.9-2.4
		c-29.7-0.2-59.3-0.1-89-0.1c-18.2,0-36.3,0-54.5-0.1c-14.7-0.1-25.1-7.6-30.9-20.5c-6.1-13.5-4.6-26.8,5.4-38.6
		c7.6-9,17.6-12.6,29.1-12.6c34,0,68,0,102,0c2,0,3.9,0,6.9,0c-11-29.5-17.6-59.3-21.2-91.2c-11,0-21.9-0.1-32.8,0
		c-11.2,0.1-22.5,0.6-33.7,0.7c-37.7,0.1-75.3,0.1-113,0c-11,0-22,0-32.9-0.9c-17.7-1.6-31.1-15.3-32.2-33.5
		c-1.2-21.1,16.5-38.2,38.1-38.1c66.6,0.2,133.3,0.1,199.9,0.1c2.1,0,4.3,0,6.2,0c2.7-15.5,4.7-30.8,8.2-45.7
		c3.4-14.9,8.3-29.4,12.7-44.8c-1.9,0-4,0-6,0c-120.7,0-241.3,0-362-0.1c-15.8,0-28.4-6-36-20.5c-11.7-22.2,4.8-50.7,29.9-51.1
		c27.5-0.4,55-0.2,82.5-0.2c59.3,0,118.6,0,177.9-0.1c32.7,0,65.3-0.3,98-0.4c16.5,0,33,0.3,49.4,0.1c2.2,0,5.1-1.7,6.3-3.5
		c17.6-26.2,38.4-49.5,62.1-70.4c6.3-5.6,13.1-10.7,20.8-16.9c-3,0-4.9,0-6.8,0c-49.3,0-98.7,0.1-148-0.1
		c-13.7,0-24.3-6.9-30.7-18.6C480.4,88.4,481,75,489.5,63c7-9.9,16.9-15,29.5-15c117.2,0.1,234.3,0,351.5,0.1
		c16.8,0,33.7-0.2,50.4,1.2c15.9,1.4,31.8,4.2,47.5,7.4c36.1,7.3,69.9,20.9,101.8,39.1c19.3,11.1,37.5,23.9,54.4,38.4
		c24.3,20.9,45.7,44.4,63.9,70.9c27.1,39.4,44.9,82.8,55.2,129.3c2.9,12.9,4.7,26,6,39.2c1.4,14,2.2,28.2,2,42.3
		c-0.6,37.2-6.8,73.6-18.8,108.9c-10.1,29.8-23.7,57.8-41.1,84c-15.4,23.1-32.7,44.7-53.1,63.6c-21.9,20.5-45.9,38.3-72.3,52.8
		c-23.3,12.8-47.4,23.7-72.9,30.7c-19,5.2-38.6,8.6-58.1,11.9c-27.4,4.7-55.1,3.1-82.6,3.1c-159.7,0.1-319.3,0-479,0
		c-14.1,0-25.5-5.5-32.3-17.8c-7.3-13.2-6.7-27,2-39.4c6.3-9.1,15.7-14.4,27.1-14.4c98.3-0.1,196.7,0,295,0
		C667.5,699.2,669.4,699.2,672.2,699.2z M598.8,411.2C597.3,566.4,728.6,701,889.6,700.4c162.1-0.5,286.8-130.8,291.6-280
		c5.5-171.8-132.4-301.6-290-302.3C729.7,117.5,596.4,250.3,598.8,411.2z"/>
	<path d="M131.9,373.1c15.5,0,31-0.4,46.5,0.1c21,0.7,36.7,15.2,36.3,37c-0.5,20.6-15.3,35-37.6,35.3c-11,0.2-21.9-0.6-32.9-0.6
		c-19.6,0.1-39.2,0.5-58.8,0.6c-18.9,0-33.3-11.9-37-30.4c-3-15,6.4-32.8,20.8-38.1c5.6-2.1,11.8-3.3,17.8-3.4c15-0.5,30-0.2,45-0.2
		C131.9,373.3,131.9,373.2,131.9,373.1z"/>
	<path d="M339.1,119c-17,0-34,0.6-50.9-0.2c-17.6-0.8-30.9-15.2-31.9-33c-1-17.3,10.8-33.2,27.4-36.7c3.2-0.7,6.6-1,9.9-1
		c31-0.1,62,0,92.9,0c19.1,0,34.2,13.4,36.1,32.8c1.7,17-10.5,35.2-28.7,37.9c-5.2,0.8-10.6,0.9-15.8,0.9c-12.8,0.1-25.6,0-38.5,0
		c-0.2,0-0.3,0-0.5,0C339.1,119.5,339.1,119.2,339.1,119z"/>
	<path d="M256.9,607.8c-14.2,0-28.3,0.3-42.5-0.1c-14.4-0.3-27.5-11.3-31.3-25.5c-6.4-24.2,10.4-46.2,35.5-46.1
		c26.7,0.1,53.3,0.2,80,0.7c18.2,0.3,31,10.6,34.6,27.8c5.2,24.5-14.1,43.3-33.8,43.2C285.2,607.8,271.1,607.8,256.9,607.8z"/>
</g>
</svg>
