<svg width="125" height="104" viewBox="0 0 125 104" fill="none" xmlns="http://www.w3.org/2000/svg">
<path d="M66.0058 13.745C66.0058 13.745 64.9331 10.63 61.4412 10.63C58.9447 10.63 56.8509 11.8928 56.7156 13.745C56.606 15.2719 57.5338 16.8471 61.3607 17.5043M56.3099 21.5856C56.3099 21.5856 57.476 24.9679 61.2642 24.9679C63.9765 24.9679 66.2508 23.5989 66.3957 21.5856C66.5149 19.9298 65.5067 18.2193 61.3512 17.5042M61.4416 8.35888V27.2388M47 36C51.3039 34.7138 56.0379 34 61.0049 34C65.9687 34 70.6994 34.7105 75 35.9967M105.63 48.8518C115.384 49.5541 122.252 45.885 122.252 39.2524C122.252 32.6198 113.252 31.7533 111.564 35.957C110.385 38.8916 112.843 40.9114 114.872 40.6279M47.6211 26.5896C44.126 27.3111 40.7984 28.3097 37.6899 29.5531C29.4434 21.326 17.8854 24.2992 17.8854 24.2992L24.9948 36.9846C19.4896 41.5782 15.7272 47.2412 14.4322 53.4744L4.35604 57.7329C2.38784 58.564 1.46977 60.8415 2.31375 62.8065L7.73517 75.4371C8.5727 77.3892 10.8308 78.2944 12.7829 77.4665L19.8891 74.4514C23.1877 78.6004 27.7168 82.1954 33.1286 84.9914V97.2742C33.1286 99.4035 34.8552 101.13 36.9844 101.13H47.7145C49.8438 101.13 51.5704 99.4035 51.5704 97.2742V90.7189C54.5404 91.1344 57.6135 91.3567 60.7575 91.3567C66.1177 91.3567 71.2653 90.7189 76.0618 89.5496V97.2742C76.0618 99.4035 77.7884 101.13 79.9177 101.13H90.6478C92.7771 101.13 94.5037 99.4035 94.5037 97.2742V81.2193C102.602 75.2793 107.582 67.2067 107.582 58.3128C107.582 43.5593 93.882 31.0671 74.9698 26.8183M77.1574 17.8004C77.1574 26.5267 70.0834 33.6008 61.357 33.6008C52.6307 33.6008 45.5566 26.5267 45.5566 17.8004C45.5566 9.07408 52.6307 2 61.357 2C70.0834 2 77.1574 9.07408 77.1574 17.8004ZM30.6385 50.1114C30.6385 50.8443 30.0443 51.4385 29.3113 51.4385C28.5783 51.4385 27.9841 50.8443 27.9841 50.1114C27.9841 49.3784 28.5783 48.7842 29.3113 48.7842C30.0443 48.7842 30.6385 49.3784 30.6385 50.1114Z" stroke="#78BE20" stroke-width="4" stroke-miterlimit="10" stroke-linecap="round" stroke-linejoin="round"/>
</svg>
